<svg width="117" height="32" viewBox="0 0 117 32" fill="none" xmlns="http://www.w3.org/2000/svg">
<path d="M18.7636 24.0727C16.2182 23.1273 13.6 22.9818 11.2 23.6364C9.52729 24.0727 7.92729 24.9454 6.47275 26.0364L5.45455 26.9091L5.16364 27.2L5.81818 27.7818C5.89091 27.7818 5.89092 27.8545 5.96365 27.9273C6.1091 28.0727 6.25456 28.1454 6.47275 28.2909L6.90909 28.5818L7.34546 28.2182C7.41819 28.1454 7.56364 28 7.7091 27.9273C9.01819 26.8364 10.4727 26.1091 12 25.7454C13.9636 25.2364 16.0727 25.3091 18.1818 26.1091C19.9273 26.7636 23.4909 27.5636 27.7818 25.7454L27.9273 25.6727L28.1455 25.4545C28.1455 25.3818 28.2182 25.3818 28.2909 25.3091C28.6546 24.8727 29.0182 24.4364 29.3091 23.9273L30.7636 21.6727L28.4364 22.9818C25.0182 24.8727 21.8909 25.2363 18.7636 24.0727Z" fill="#418A2F"/>
<path d="M8.8 16.2182C10.7636 15.7091 12.8727 15.7818 14.9818 16.5818C17.3091 17.4545 23.2727 18.6909 29.9636 12.6545L31.0546 11.5636L31.1273 11.4909L31.4182 11.2L31.2727 10.8364C31.2 10.5454 31.0545 10.1818 30.9091 9.81818L30.5455 8.79998L29.8182 9.52725C29.7455 9.67271 29.6 9.74544 29.4545 9.89089C26.2545 13.1636 21.3091 16.5091 15.6364 14.4727C13.0909 13.5273 10.4727 13.3818 8.07273 14.0364C5.74546 14.6909 3.70909 15.9273 1.81818 17.6727V17.6L0.727272 18.7636C0.727272 18.8364 0.654558 18.8364 0.581831 18.9091L0.363636 19.1273L0.436368 19.4182C0.509095 19.7818 0.654545 20.1454 0.727272 20.5091L1.16364 21.6727L1.89091 20.7273C1.96364 20.5818 2.10909 20.5091 2.18182 20.3636C3.70909 18.9818 5.81819 17.0182 8.8 16.2182Z" fill="#418A2F"/>
<path d="M1.74547 14.9091C3.4182 13.1636 5.3091 12.0727 7.34546 11.4909C9.3091 10.9818 11.4182 11.0545 13.5273 11.8545C20.0727 14.2545 25.7455 10.3273 28.2182 8.21817L29.1636 7.27273L29.5273 6.9818L29.2364 6.54545C29.0182 6.32727 28.8727 6.03636 28.6546 5.74545L28.2182 5.16362L27.7091 5.67272C27.6364 5.74545 27.4909 5.8909 27.4182 5.96362C24.3636 8.87271 19.6364 11.8545 14.2546 9.81818C11.7091 8.87273 9.09092 8.72727 6.69092 9.38181C5.16365 9.81818 3.7091 10.5454 2.25455 11.4909L0.727273 12.7273C0.581818 12.8727 0.509091 12.9455 0.363636 13.0909L0.218195 13.2363V13.4545C0.145468 13.9636 0.145459 14.4727 0.0727317 14.9091L0 16.7273L1.23637 15.4182C1.38183 15.2727 1.52729 15.0545 1.74547 14.9091Z" fill="#418A2F"/>
<path d="M20.8727 29.0182L20.7273 29.4546L20.8727 29.0182C20.6546 28.9455 20.5091 28.8727 20.2909 28.8C17.7455 27.8545 15.1273 27.7091 12.7273 28.3636C12.2182 28.5091 11.7091 28.6545 11.2 28.8727L9.45455 29.6727L9.0182 29.8909L10.4727 30.4C10.9091 30.5455 11.3455 30.6909 11.7818 30.8364L12 30.9091L12.2182 30.8364C12.4364 30.7636 12.6546 30.6182 12.8727 30.6182C13.0182 30.6182 13.1637 30.5455 13.3091 30.4727C15.0546 30.0364 16.9455 30.0364 18.9818 30.6909C19.2 30.7636 19.3455 30.8364 19.5637 30.9091L19.9273 31.0545L20.1455 30.9818C20.6546 30.8364 21.2364 30.6909 21.6727 30.4727L23.7091 29.7455L21.6 29.2364C21.3818 29.1636 21.0909 29.0909 20.8727 29.0182Z" fill="#418A2F"/>
<path d="M32 13.9636L30.9091 15.0545C30.7636 15.2 30.6182 15.3454 30.4727 15.4909C27.4909 18.3273 22.6909 21.3818 17.3091 19.3454C14.7636 18.4 12.1455 18.2545 9.74547 18.9091C7.49093 19.5636 5.45455 20.7273 3.63636 22.4727L2.69092 23.4909L2.40001 23.8545L2.69092 24.2909C2.9091 24.5818 3.05456 24.8 3.20002 25.0909L3.63636 25.7455L4.14546 25.0909C4.21819 25.0182 4.36364 24.8727 4.43637 24.8C6.18182 22.9091 8.07273 21.7454 10.2545 21.1636C12.2182 20.6545 14.3273 20.7273 16.4364 21.5273C18.2546 22.1818 20.1455 22.4 22.0364 22.1818C25.3818 21.8182 28.7273 19.9273 31.2 17.8182C31.3455 17.6727 31.4909 17.6 31.6364 17.4545L31.8546 17.2364V17.0182C31.8546 16.5818 31.9273 16.0727 31.9273 15.6364L32 13.9636Z" fill="#418A2F"/>
<path d="M4.36364 7.27273L4.14546 6.83636L4.36364 7.27273C4.8 7.05455 5.30911 6.90908 5.74547 6.76363C7.70911 6.25454 9.8182 6.32726 11.9273 7.12726C13.3091 7.63636 14.6909 7.85454 16.2182 7.85454C19.2727 7.85454 22.3273 6.76363 25.1636 4.65454L26.2545 3.78181L26.6182 3.4909L25.9636 2.9818C25.7455 2.76362 25.4545 2.54545 25.1636 2.39999L24.7273 2.10909L24.3636 2.39999C24.2182 2.47272 24.1455 2.61817 24 2.6909C20.1455 5.59999 16.2909 6.4 12.6546 5.01818C10.0364 4.07272 7.41819 3.85454 4.8 4.65454C4.58182 4.72727 4.36364 4.79999 4.07273 4.87271L3.92729 4.94545L3.70909 5.16362C3.70909 5.23635 3.63638 5.23636 3.56365 5.30908C3.27274 5.74545 2.90909 6.10909 2.61819 6.54546L1.23637 8.65454L3.49092 7.4909C3.85456 7.4909 4.14545 7.34546 4.36364 7.27273Z" fill="#418A2F"/>
<path d="M10.3273 2.32726L10.5455 2.39999C11.4909 2.76363 12.9455 3.12726 14.7636 3.12726C16.6546 3.12726 18.4727 2.6909 20.2909 1.96362L22.5455 0.872714L21.0182 0.363636C20.5818 0.218182 20.1455 0.0727273 19.6364 0H19.4182L19.2 0.0727095C18.9818 0.145437 18.7636 0.290909 18.5455 0.363636C16.3636 1.16364 14.1818 1.30909 12.0727 0.727273C11.8545 0.654545 11.6364 0.581805 11.4182 0.509078L11.2 0.436346L10.9818 0.509078C10.5455 0.654532 10.1091 0.799996 9.67274 1.01818L8 1.74545L9.74547 2.25453C9.89093 2.1818 10.1091 2.25453 10.3273 2.32726Z" fill="#418A2F"/>
<path d="M42.1 23.5273H39.62V8.90727H42.1L46.82 20.5473L51.54 8.90727H54.06V23.5273H51.58V19.0273C51.58 18.2939 51.58 17.6806 51.58 17.1873C51.58 16.6806 51.5867 16.2539 51.6 15.9073C51.6133 15.5606 51.6267 15.2539 51.64 14.9873C51.6533 14.7206 51.68 14.4539 51.72 14.1873L48 23.5273H45.64L41.94 14.2073C42.0067 14.6473 42.0467 15.2073 42.06 15.8873C42.0867 16.5673 42.1 17.3673 42.1 18.2873V23.5273ZM61.3558 23.7873C60.3824 23.7873 59.5158 23.5673 58.7558 23.1273C58.0091 22.6739 57.4224 22.0606 56.9958 21.2873C56.5691 20.5006 56.3558 19.6006 56.3558 18.5873C56.3558 17.5606 56.5624 16.6539 56.9758 15.8673C57.3891 15.0806 57.9691 14.4673 58.7158 14.0273C59.4624 13.5739 60.3158 13.3473 61.2758 13.3473C62.2758 13.3473 63.1358 13.5606 63.8558 13.9873C64.5758 14.4006 65.1291 14.9806 65.5158 15.7273C65.9158 16.4739 66.1158 17.3673 66.1158 18.4073V19.1473L57.6358 19.1673L57.6758 17.6073H63.6958C63.6958 16.9273 63.4758 16.3806 63.0358 15.9673C62.6091 15.5539 62.0291 15.3473 61.2958 15.3473C60.7224 15.3473 60.2358 15.4673 59.8358 15.7073C59.4491 15.9473 59.1558 16.3073 58.9558 16.7873C58.7558 17.2673 58.6558 17.8539 58.6558 18.5473C58.6558 19.6139 58.8824 20.4206 59.3358 20.9673C59.8024 21.5139 60.4891 21.7873 61.3958 21.7873C62.0624 21.7873 62.6091 21.6606 63.0358 21.4073C63.4758 21.1539 63.7624 20.7939 63.8958 20.3273H66.1558C65.9424 21.4073 65.4091 22.2539 64.5558 22.8673C63.7158 23.4806 62.6491 23.7873 61.3558 23.7873ZM70.5086 23.5273H68.0686V13.6473H70.3286L70.5286 14.9273C70.8353 14.4339 71.2686 14.0473 71.8286 13.7673C72.4019 13.4873 73.0219 13.3473 73.6886 13.3473C74.9286 13.3473 75.8619 13.7139 76.4886 14.4473C77.1286 15.1806 77.4486 16.1806 77.4486 17.4473V23.5273H75.0086V18.0273C75.0086 17.2006 74.8219 16.5873 74.4486 16.1873C74.0753 15.7739 73.5686 15.5673 72.9286 15.5673C72.1686 15.5673 71.5753 15.8073 71.1486 16.2873C70.7219 16.7673 70.5086 17.4073 70.5086 18.2073V23.5273ZM78.8659 13.6473H85.1059V15.6873H78.8659V13.6473ZM83.2059 23.5273H80.7659V10.5673H83.2059V23.5273ZM85.9652 18.5673C85.9652 17.5406 86.1918 16.6406 86.6452 15.8673C87.0985 15.0806 87.7252 14.4673 88.5252 14.0273C89.3252 13.5873 90.2318 13.3673 91.2452 13.3673C92.2718 13.3673 93.1785 13.5873 93.9652 14.0273C94.7652 14.4673 95.3918 15.0806 95.8452 15.8673C96.2985 16.6406 96.5252 17.5406 96.5252 18.5673C96.5252 19.5939 96.2985 20.5006 95.8452 21.2873C95.3918 22.0606 94.7652 22.6673 93.9652 23.1073C93.1785 23.5473 92.2718 23.7673 91.2452 23.7673C90.2318 23.7673 89.3252 23.5473 88.5252 23.1073C87.7252 22.6673 87.0985 22.0606 86.6452 21.2873C86.1918 20.5006 85.9652 19.5939 85.9652 18.5673ZM88.4052 18.5673C88.4052 19.1673 88.5252 19.6939 88.7652 20.1473C89.0185 20.6006 89.3518 20.9539 89.7652 21.2073C90.1918 21.4606 90.6852 21.5873 91.2452 21.5873C91.8052 21.5873 92.2985 21.4606 92.7252 21.2073C93.1518 20.9539 93.4852 20.6006 93.7252 20.1473C93.9652 19.6939 94.0852 19.1673 94.0852 18.5673C94.0852 17.9539 93.9652 17.4273 93.7252 16.9873C93.4852 16.5339 93.1518 16.1806 92.7252 15.9273C92.2985 15.6739 91.8052 15.5473 91.2452 15.5473C90.6852 15.5473 90.1918 15.6739 89.7652 15.9273C89.3518 16.1806 89.0185 16.5339 88.7652 16.9873C88.5252 17.4273 88.4052 17.9539 88.4052 18.5673ZM104.659 13.6073V15.8673H103.759C102.866 15.8673 102.166 16.1073 101.659 16.5873C101.153 17.0539 100.899 17.7673 100.899 18.7273V23.5273H98.4592V13.6673H100.759L100.959 15.7073H100.719C100.853 15.0539 101.166 14.5206 101.659 14.1073C102.153 13.6939 102.793 13.4873 103.579 13.4873C103.753 13.4873 103.926 13.4939 104.099 13.5073C104.273 13.5206 104.459 13.5539 104.659 13.6073ZM105.399 18.5673C105.399 17.5406 105.625 16.6406 106.079 15.8673C106.532 15.0806 107.159 14.4673 107.959 14.0273C108.759 13.5873 109.665 13.3673 110.679 13.3673C111.705 13.3673 112.612 13.5873 113.399 14.0273C114.199 14.4673 114.825 15.0806 115.279 15.8673C115.732 16.6406 115.959 17.5406 115.959 18.5673C115.959 19.5939 115.732 20.5006 115.279 21.2873C114.825 22.0606 114.199 22.6673 113.399 23.1073C112.612 23.5473 111.705 23.7673 110.679 23.7673C109.665 23.7673 108.759 23.5473 107.959 23.1073C107.159 22.6673 106.532 22.0606 106.079 21.2873C105.625 20.5006 105.399 19.5939 105.399 18.5673ZM107.839 18.5673C107.839 19.1673 107.959 19.6939 108.199 20.1473C108.452 20.6006 108.785 20.9539 109.199 21.2073C109.625 21.4606 110.119 21.5873 110.679 21.5873C111.239 21.5873 111.732 21.4606 112.159 21.2073C112.585 20.9539 112.919 20.6006 113.159 20.1473C113.399 19.6939 113.519 19.1673 113.519 18.5673C113.519 17.9539 113.399 17.4273 113.159 16.9873C112.919 16.5339 112.585 16.1806 112.159 15.9273C111.732 15.6739 111.239 15.5473 110.679 15.5473C110.119 15.5473 109.625 15.6739 109.199 15.9273C108.785 16.1806 108.452 16.5339 108.199 16.9873C107.959 17.4273 107.839 17.9539 107.839 18.5673Z" fill="#418A2F"/>
</svg>
