<svg width="32" height="32" viewBox="0 0 32 32" fill="none" xmlns="http://www.w3.org/2000/svg">
<path d="M18.7636 24.0727C16.2182 23.1273 13.6 22.9818 11.2 23.6364C9.52729 24.0727 7.92729 24.9454 6.47275 26.0364L5.45455 26.9091L5.16364 27.2L5.81818 27.7818C5.89091 27.7818 5.89092 27.8545 5.96365 27.9273C6.1091 28.0727 6.25456 28.1454 6.47275 28.2909L6.90909 28.5818L7.34546 28.2182C7.41819 28.1454 7.56364 28 7.7091 27.9273C9.01819 26.8364 10.4727 26.1091 12 25.7454C13.9636 25.2364 16.0727 25.3091 18.1818 26.1091C19.9273 26.7636 23.4909 27.5636 27.7818 25.7454L27.9273 25.6727L28.1455 25.4545C28.1455 25.3818 28.2182 25.3818 28.2909 25.3091C28.6546 24.8727 29.0182 24.4364 29.3091 23.9273L30.7636 21.6727L28.4364 22.9818C25.0182 24.8727 21.8909 25.2363 18.7636 24.0727Z" fill="#418A2F"/>
<path d="M8.8 16.2182C10.7636 15.7091 12.8727 15.7818 14.9818 16.5818C17.3091 17.4545 23.2727 18.6909 29.9636 12.6545L31.0546 11.5636L31.1273 11.4909L31.4182 11.2L31.2727 10.8364C31.2 10.5454 31.0545 10.1818 30.9091 9.81818L30.5455 8.79998L29.8182 9.52725C29.7455 9.67271 29.6 9.74544 29.4545 9.89089C26.2545 13.1636 21.3091 16.5091 15.6364 14.4727C13.0909 13.5273 10.4727 13.3818 8.07273 14.0364C5.74546 14.6909 3.70909 15.9273 1.81818 17.6727V17.6L0.727272 18.7636C0.727272 18.8364 0.654558 18.8364 0.581831 18.9091L0.363636 19.1273L0.436368 19.4182C0.509095 19.7818 0.654545 20.1454 0.727272 20.5091L1.16364 21.6727L1.89091 20.7273C1.96364 20.5818 2.10909 20.5091 2.18182 20.3636C3.70909 18.9818 5.81819 17.0182 8.8 16.2182Z" fill="#418A2F"/>
<path d="M1.74547 14.9091C3.4182 13.1636 5.3091 12.0727 7.34546 11.4909C9.3091 10.9818 11.4182 11.0545 13.5273 11.8545C20.0727 14.2545 25.7455 10.3273 28.2182 8.21817L29.1636 7.27273L29.5273 6.9818L29.2364 6.54545C29.0182 6.32727 28.8727 6.03636 28.6546 5.74545L28.2182 5.16362L27.7091 5.67272C27.6364 5.74545 27.4909 5.8909 27.4182 5.96362C24.3636 8.87271 19.6364 11.8545 14.2546 9.81818C11.7091 8.87273 9.09092 8.72727 6.69092 9.38181C5.16365 9.81818 3.7091 10.5454 2.25455 11.4909L0.727273 12.7273C0.581818 12.8727 0.509091 12.9455 0.363636 13.0909L0.218195 13.2363V13.4545C0.145468 13.9636 0.145459 14.4727 0.0727317 14.9091L0 16.7273L1.23637 15.4182C1.38183 15.2727 1.52729 15.0545 1.74547 14.9091Z" fill="#418A2F"/>
<path d="M20.8727 29.0182L20.7273 29.4546L20.8727 29.0182C20.6546 28.9455 20.5091 28.8727 20.2909 28.8C17.7455 27.8545 15.1273 27.7091 12.7273 28.3636C12.2182 28.5091 11.7091 28.6545 11.2 28.8727L9.45455 29.6727L9.0182 29.8909L10.4727 30.4C10.9091 30.5455 11.3455 30.6909 11.7818 30.8364L12 30.9091L12.2182 30.8364C12.4364 30.7636 12.6546 30.6182 12.8727 30.6182C13.0182 30.6182 13.1637 30.5455 13.3091 30.4727C15.0546 30.0364 16.9455 30.0364 18.9818 30.6909C19.2 30.7636 19.3455 30.8364 19.5637 30.9091L19.9273 31.0545L20.1455 30.9818C20.6546 30.8364 21.2364 30.6909 21.6727 30.4727L23.7091 29.7455L21.6 29.2364C21.3818 29.1636 21.0909 29.0909 20.8727 29.0182Z" fill="#418A2F"/>
<path d="M32 13.9636L30.9091 15.0545C30.7636 15.2 30.6182 15.3454 30.4727 15.4909C27.4909 18.3273 22.6909 21.3818 17.3091 19.3454C14.7636 18.4 12.1455 18.2545 9.74547 18.9091C7.49093 19.5636 5.45455 20.7273 3.63636 22.4727L2.69092 23.4909L2.40001 23.8545L2.69092 24.2909C2.9091 24.5818 3.05456 24.8 3.20002 25.0909L3.63636 25.7455L4.14546 25.0909C4.21819 25.0182 4.36364 24.8727 4.43637 24.8C6.18182 22.9091 8.07273 21.7454 10.2545 21.1636C12.2182 20.6545 14.3273 20.7273 16.4364 21.5273C18.2546 22.1818 20.1455 22.4 22.0364 22.1818C25.3818 21.8182 28.7273 19.9273 31.2 17.8182C31.3455 17.6727 31.4909 17.6 31.6364 17.4545L31.8546 17.2364V17.0182C31.8546 16.5818 31.9273 16.0727 31.9273 15.6364L32 13.9636Z" fill="#418A2F"/>
<path d="M4.36364 7.27273L4.14546 6.83636L4.36364 7.27273C4.8 7.05455 5.30911 6.90908 5.74547 6.76363C7.70911 6.25454 9.8182 6.32726 11.9273 7.12726C13.3091 7.63636 14.6909 7.85454 16.2182 7.85454C19.2727 7.85454 22.3273 6.76363 25.1636 4.65454L26.2545 3.78181L26.6182 3.4909L25.9636 2.9818C25.7455 2.76362 25.4545 2.54545 25.1636 2.39999L24.7273 2.10909L24.3636 2.39999C24.2182 2.47272 24.1455 2.61817 24 2.6909C20.1455 5.59999 16.2909 6.4 12.6546 5.01818C10.0364 4.07272 7.41819 3.85454 4.8 4.65454C4.58182 4.72727 4.36364 4.79999 4.07273 4.87271L3.92729 4.94545L3.70909 5.16362C3.70909 5.23635 3.63638 5.23636 3.56365 5.30908C3.27274 5.74545 2.90909 6.10909 2.61819 6.54546L1.23637 8.65454L3.49092 7.4909C3.85456 7.4909 4.14545 7.34546 4.36364 7.27273Z" fill="#418A2F"/>
<path d="M10.3273 2.32726L10.5455 2.39999C11.4909 2.76363 12.9455 3.12726 14.7636 3.12726C16.6546 3.12726 18.4727 2.6909 20.2909 1.96362L22.5455 0.872714L21.0182 0.363636C20.5818 0.218182 20.1455 0.0727273 19.6364 0H19.4182L19.2 0.0727095C18.9818 0.145437 18.7636 0.290909 18.5455 0.363636C16.3636 1.16364 14.1818 1.30909 12.0727 0.727273C11.8545 0.654545 11.6364 0.581805 11.4182 0.509078L11.2 0.436346L10.9818 0.509078C10.5455 0.654532 10.1091 0.799996 9.67274 1.01818L8 1.74545L9.74547 2.25453C9.89093 2.1818 10.1091 2.25453 10.3273 2.32726Z" fill="#418A2F"/>
</svg>
